<?xml version="1.0" standalone="no"?>
<!DOCTYPE svg PUBLIC "-//W3C//DTD SVG 20010904//EN"
 "http://www.w3.org/TR/2001/REC-SVG-20010904/DTD/svg10.dtd">
<svg version="1.0" xmlns="http://www.w3.org/2000/svg"
 width="369.000000pt" height="254.000000pt" viewBox="0 0 369.000000 254.000000"
 preserveAspectRatio="xMidYMid meet">
<metadata>
Created by potrace 1.16, written by Peter Selinger 2001-2019
</metadata>
<g transform="translate(0.000000,254.000000) scale(0.100000,-0.100000)"
fill="#ffffff" stroke="none">
<path d="M1665 2014 c-27 -8 -114 -30 -192 -49 -177 -44 -170 -41 -182 -76
-10 -28 -26 -38 -33 -20 -5 15 -58 25 -58 12 0 -10 45 -189 119 -468 l29 -111
-33 -24 -33 -23 39 -60 c70 -104 107 -189 139 -314 36 -142 47 -171 70 -171 9
0 45 11 81 25 35 14 103 35 151 46 l87 20 3 36 c3 31 8 37 41 51 38 15 40 14
107 -22 38 -20 70 -36 73 -36 4 0 1 17 -17 110 -7 34 -6 36 31 54 41 19 390
215 485 272 l56 34 -10 37 c-6 21 -29 70 -52 108 -23 39 -68 123 -100 188
l-58 117 -39 0 c-37 0 -51 12 -29 25 12 8 13 52 1 59 -8 5 -97 -40 -296 -151
-49 -27 -104 -57 -122 -67 l-32 -16 -21 72 c-74 258 -101 343 -112 350 -17 11
-34 9 -93 -8z"/>
</g>
</svg>
