<?xml version="1.0" standalone="no"?>
<!DOCTYPE svg PUBLIC "-//W3C//DTD SVG 20010904//EN"
 "http://www.w3.org/TR/2001/REC-SVG-20010904/DTD/svg10.dtd">
<svg version="1.0" xmlns="http://www.w3.org/2000/svg"
 width="482.000000pt" height="120.000000pt" viewBox="0 0 482.000000 120.000000"
 preserveAspectRatio="xMidYMid meet">
<metadata>
Created by potrace 1.16, written by Peter Selinger 2001-2019
</metadata>
<g transform="translate(0.000000,120.000000) scale(0.100000,-0.100000)"
fill="#ffffff" stroke="none">
<path d="M123 1157 c-31 -9 -33 -13 -33 -55 0 -27 -6 -52 -16 -63 -9 -10 -17
-41 -19 -76 -8 -118 -36 -501 -44 -598 -5 -55 -5 -109 -1 -121 5 -11 4 -28 -2
-37 -16 -29 -2 -110 21 -126 12 -7 21 -19 21 -25 0 -9 241 -12 1033 -12 567 1
1201 -1 1408 -3 l376 -4 141 56 c127 51 148 57 214 57 83 0 423 -30 683 -61
94 -11 278 -31 411 -44 132 -13 266 -27 296 -31 l56 -7 24 39 c45 73 57 117
62 219 3 55 5 103 6 108 0 4 5 7 11 7 5 0 7 -4 4 -10 -3 -5 -1 -10 4 -10 6 0
11 10 11 23 1 21 5 62 14 134 3 18 0 36 -6 39 -7 4 -8 2 -4 -4 4 -8 2 -10 -8
-6 -20 8 -8 34 15 34 16 0 18 3 10 19 -6 10 -8 21 -4 24 3 4 6 77 7 163 2 121
-1 159 -12 170 -8 8 -9 14 -3 14 17 0 13 67 -4 74 -11 4 -15 20 -15 55 l0 49
-127 6 c-71 4 -935 9 -1921 12 -1649 4 -1793 4 -1799 -11 -4 -12 -8 -13 -13
-5 -5 9 -17 9 -49 0 -43 -11 -54 -13 -183 -25 -58 -6 -81 -5 -93 5 -9 7 -18
10 -21 7 -3 -3 -20 -1 -37 4 -17 5 -102 11 -190 14 -87 3 -159 5 -160 6 -13 5
-38 4 -64 -4z"/>
</g>
</svg>
