<?xml version="1.0" standalone="no"?>
<!DOCTYPE svg PUBLIC "-//W3C//DTD SVG 20010904//EN" "http://www.w3.org/TR/2001/REC-SVG-20010904/DTD/svg10.dtd">
<svg version="1.0" xmlns="http://www.w3.org/2000/svg"
    width="129.000000pt" height="46.000000pt" viewBox="0 0 129.000000 46.000000"
    preserveAspectRatio="xMidYMid meet">
    <metadata> Created by potrace 1.16, written by Peter Selinger 2001-2019 </metadata>
    <g transform="translate(0.000000,46.000000) scale(0.100000,-0.100000)"
        fill="#ffffff" stroke="none">
        <path
            d="M50 441 c0 -12 5 -21 10 -21 6 0 10 -7 10 -15 0 -8 8 -23 18 -33 10
-10 33 -44 51 -75 31 -54 31 -57 16 -87 -16 -31 -13 -70 6 -70 5 0 9 -9 9 -19
0 -59 11 -60 210 -32 74 11 205 27 290 36 189 19 315 34 395 46 33 5 81 9 106
9 68 0 78 17 50 86 -20 47 -22 59 -11 85 7 16 10 32 8 35 -9 8 -365 34 -468
33 -52 0 -194 7 -314 16 -121 9 -242 15 -270 14 -28 -2 -66 1 -83 5 -29 7 -33
5 -33 -13z" />
    </g>
</svg>