<?xml version="1.0" standalone="no"?>
<!DOCTYPE svg PUBLIC "-//W3C//DTD SVG 20010904//EN"
 "http://www.w3.org/TR/2001/REC-SVG-20010904/DTD/svg10.dtd">
<svg version="1.0" xmlns="http://www.w3.org/2000/svg"
 width="599.000000pt" height="184.000000pt" viewBox="0 0 599.000000 184.000000"
 preserveAspectRatio="xMidYMid meet">
<metadata>
Created by potrace 1.16, written by Peter Selinger 2001-2019
</metadata>
<g transform="translate(0.000000,184.000000) scale(0.100000,-0.100000)"
fill="#ffffff" stroke="none">
<path d="M364 1806 c-3 -8 -4 -20 -3 -27 1 -8 -1 -35 -5 -61 -7 -40 -4 -55 14
-90 13 -24 24 -59 25 -78 2 -37 -20 -115 -54 -190 -11 -25 -21 -53 -21 -64 0
-33 -71 -160 -109 -196 -54 -50 -61 -69 -58 -147 2 -62 -1 -72 -25 -101 -33
-39 -44 -91 -28 -122 8 -15 10 -43 6 -80 -5 -44 -3 -60 8 -69 8 -7 63 -19 123
-26 59 -8 198 -25 308 -40 110 -14 344 -41 520 -60 176 -19 421 -46 545 -60
124 -14 414 -43 645 -65 231 -22 616 -60 855 -85 239 -25 532 -54 650 -65 118
-11 323 -31 455 -45 132 -13 335 -33 450 -44 879 -85 880 -85 896 -61 5 8 8
38 7 65 -2 33 2 59 13 75 28 44 30 62 13 112 -12 38 -13 55 -5 80 6 17 11 52
11 77 1 50 14 72 67 109 21 15 36 37 43 62 7 26 26 53 59 82 59 52 65 64 81
153 6 39 19 82 26 97 13 25 13 33 -2 76 -17 48 -17 48 9 103 23 48 25 59 16
101 -6 27 -17 49 -27 53 -29 11 -423 47 -992 90 -113 8 -236 20 -275 25 -63 9
-167 21 -530 65 -66 8 -232 26 -370 40 -137 14 -414 43 -615 65 -458 50 -493
53 -900 90 -372 34 -1010 97 -1150 114 -30 4 -113 11 -185 16 -71 6 -200 16
-285 25 -194 18 -199 18 -206 1z"/>
</g>
</svg>
