<?xml version="1.0" standalone="no"?>
<!DOCTYPE svg PUBLIC "-//W3C//DTD SVG 20010904//EN"
 "http://www.w3.org/TR/2001/REC-SVG-20010904/DTD/svg10.dtd">
<svg version="1.0" xmlns="http://www.w3.org/2000/svg"
 width="1367.000000pt" height="456.000000pt" viewBox="0 0 1367.000000 456.000000"
 preserveAspectRatio="xMidYMid meet">
<metadata>
Created by potrace 1.16, written by Peter Selinger 2001-2019
</metadata>
<g transform="translate(0.000000,456.000000) scale(0.100000,-0.100000)"
fill="#ffffff" stroke="none">
<path d="M1403 4398 c3 -13 16 -103 28 -201 l22 -178 -25 -52 c-15 -29 -61
-95 -102 -147 -42 -52 -93 -129 -114 -169 l-37 -75 -7 -290 c-4 -205 -11 -313
-22 -366 -24 -115 -43 -264 -80 -635 -34 -332 -35 -341 -66 -400 -26 -49 -31
-69 -27 -105 3 -36 20 -95 34 -118 1 -2 59 -10 130 -18 70 -7 270 -29 443 -49
173 -19 335 -37 360 -40 25 -3 86 -10 135 -15 50 -6 153 -17 230 -25 77 -8
174 -20 215 -25 41 -6 165 -20 275 -31 220 -23 223 -23 345 -38 47 -5 128 -13
180 -17 52 -3 104 -8 115 -10 11 -3 65 -6 120 -9 129 -6 204 -13 218 -22 11
-7 67 -12 121 -12 16 0 43 -5 61 -11 17 -6 60 -12 96 -14 66 -4 107 -9 194
-25 46 -9 148 -21 220 -26 17 -1 82 -9 145 -18 63 -9 162 -21 220 -26 101 -10
259 -28 440 -51 112 -13 439 -49 565 -60 55 -6 114 -12 130 -15 49 -8 279 -33
450 -49 153 -15 269 -29 525 -61 63 -8 140 -15 171 -15 30 0 59 -4 65 -9 13
-14 263 -41 283 -31 29 14 87 30 109 30 12 0 30 4 40 9 9 5 37 14 62 21 25 7
53 16 62 21 10 5 29 9 43 9 14 0 25 4 25 9 0 5 19 11 43 14 51 7 156 30 179
41 9 4 22 8 30 10 7 1 19 5 26 10 24 15 253 9 327 -8 39 -10 135 -28 215 -41
80 -13 163 -30 185 -38 22 -8 84 -20 138 -28 53 -7 97 -16 97 -19 0 -9 89 -28
170 -36 36 -4 80 -13 99 -20 18 -8 77 -21 130 -30 53 -9 121 -24 151 -34 30
-10 78 -21 105 -24 97 -12 130 -19 136 -28 3 -5 48 -16 100 -24 52 -8 108 -21
124 -29 17 -7 71 -19 120 -25 50 -7 104 -18 120 -25 37 -17 59 -22 110 -29 95
-13 121 -19 131 -28 7 -5 56 -16 110 -24 54 -9 107 -22 118 -29 12 -7 64 -19
116 -25 52 -6 108 -18 123 -25 16 -8 81 -22 145 -31 64 -9 126 -23 137 -30 11
-7 72 -20 135 -29 63 -9 120 -21 127 -27 6 -5 54 -16 105 -24 51 -8 120 -23
153 -34 33 -10 77 -21 98 -25 20 -3 37 -10 37 -15 0 -14 32 -17 65 -7 30 10
76 52 95 88 6 10 17 19 25 19 8 0 15 9 15 20 0 12 11 31 25 44 14 13 25 33 25
45 0 11 4 21 9 21 18 0 41 31 41 55 0 13 8 31 17 41 9 9 20 40 24 68 25 162
31 212 44 314 11 94 18 119 40 147 16 22 34 35 49 35 13 0 28 6 34 13 5 6 17
68 27 137 9 69 21 150 26 180 9 50 7 57 -11 72 -26 21 -26 58 0 88 11 13 20
30 20 39 0 8 12 24 26 36 28 22 19 -35 97 635 16 131 21 213 16 228 -6 16 -4
30 5 45 8 12 17 52 21 90 6 59 5 68 -12 74 -10 4 -26 15 -37 24 -17 17 -18 24
-5 138 7 66 10 124 6 127 -3 4 -131 21 -284 39 -260 31 -331 42 -443 65 -25 6
-117 19 -205 31 -175 22 -575 76 -615 83 -14 2 -61 11 -105 19 -128 24 -249
37 -472 53 -114 8 -215 15 -223 16 -8 0 -105 12 -215 25 -110 14 -247 28 -305
33 -98 8 -206 19 -525 56 -71 8 -168 19 -215 24 -147 16 -359 40 -535 60 -93
10 -240 26 -325 35 -202 21 -628 72 -705 85 -33 5 -112 14 -175 20 -117 11
-297 33 -406 50 -33 6 -92 12 -130 15 -38 3 -109 12 -159 20 -49 8 -122 16
-161 18 -40 3 -76 7 -81 10 -5 3 -76 13 -159 22 -82 9 -156 18 -164 20 -13 4
-121 15 -275 30 -27 3 -61 8 -75 10 -23 5 -215 27 -595 70 -77 8 -192 22 -255
30 -63 8 -203 24 -310 35 -107 11 -229 25 -270 30 -86 11 -388 46 -470 54
-179 18 -373 41 -785 91 -163 20 -189 19 -240 -10 -30 -16 -47 -21 -51 -13 -5
8 -41 9 -123 3 -194 -14 -642 -12 -671 2 -14 7 -31 13 -38 13 -7 0 -15 6 -18
14 -6 16 -207 86 -246 86 -14 0 -38 4 -54 9 -16 5 -55 12 -88 15 -57 6 -58 6
-53 -16z"/>
</g>
</svg>
