<?xml version="1.0" standalone="no"?>
<!DOCTYPE svg PUBLIC "-//W3C//DTD SVG 20010904//EN"
 "http://www.w3.org/TR/2001/REC-SVG-20010904/DTD/svg10.dtd">
<svg version="1.0" xmlns="http://www.w3.org/2000/svg"
 width="828.000000pt" height="286.000000pt" viewBox="0 0 828.000000 286.000000"
 preserveAspectRatio="xMidYMid meet">
<metadata>
Created by potrace 1.16, written by Peter Selinger 2001-2019
</metadata>
<g transform="translate(0.000000,286.000000) scale(0.100000,-0.100000)"
fill="#ffffff" stroke="none">
<path d="M134 2684 c-30 -15 -31 -19 -30 -73 1 -80 -31 -190 -60 -203 -13 -6
-25 -16 -28 -24 -3 -7 18 -54 45 -106 27 -51 66 -129 86 -173 21 -44 76 -154
122 -245 l85 -165 1 -145 0 -145 -35 -56 c-19 -31 -53 -76 -74 -100 -52 -60
-63 -83 -71 -159 -3 -36 -17 -123 -31 -195 -13 -71 -24 -141 -24 -155 l0 -25
24 30 24 30 14 -35 c8 -19 12 -37 9 -40 -4 -3 -22 -28 -40 -55 -19 -28 -54
-66 -78 -85 -52 -42 -56 -74 -8 -77 17 -1 156 -9 310 -18 154 -9 424 -28 600
-41 868 -65 1145 -86 1555 -114 245 -17 603 -42 795 -55 342 -24 581 -39 1075
-70 135 -8 313 -19 395 -25 83 -5 278 -16 435 -25 157 -8 348 -20 425 -25 77
-5 178 -12 225 -15 47 -3 177 -12 290 -20 516 -37 1337 -72 1351 -58 5 5 12
27 16 49 3 21 19 60 35 86 28 44 30 56 35 170 3 68 12 143 20 167 11 34 12 70
7 149 -6 95 -5 106 14 131 11 16 55 95 97 176 66 127 79 161 91 234 26 161 58
260 118 361 82 138 116 213 141 307 27 106 60 402 45 416 -4 5 -90 13 -191 18
-101 4 -240 13 -309 19 -69 5 -255 17 -415 25 -159 9 -306 17 -325 20 -19 3
-141 9 -270 15 -129 6 -341 17 -470 25 -129 9 -363 22 -520 30 -470 25 -648
35 -795 45 -181 12 -290 18 -565 30 -293 13 -1038 50 -1115 55 -33 2 -195 11
-360 19 -165 9 -336 18 -380 20 -44 3 -217 13 -385 21 -168 9 -381 20 -475 26
-239 14 -710 37 -1290 64 -88 4 -116 1 -141 -11z"/>
</g>
</svg>
