<?xml version="1.0" standalone="no"?>
<!DOCTYPE svg PUBLIC "-//W3C//DTD SVG 20010904//EN"
 "http://www.w3.org/TR/2001/REC-SVG-20010904/DTD/svg10.dtd">
<svg version="1.0" xmlns="http://www.w3.org/2000/svg"
 width="375.000000pt" height="200.000000pt" viewBox="0 0 375.000000 200.000000"
 preserveAspectRatio="xMidYMid meet">
<metadata>
Created by potrace 1.16, written by Peter Selinger 2001-2019
</metadata>
<g transform="translate(0.000000,200.000000) scale(0.100000,-0.100000)"
fill="#ffffff" stroke="none">
<path d="M3240 1701 c0 -4 -53 -11 -117 -15 -65 -4 -120 -12 -124 -17 -3 -6
-26 -10 -50 -10 -71 1 -169 -10 -169 -19 0 -4 -56 -11 -125 -15 -69 -4 -127
-11 -130 -15 -3 -4 -68 -11 -145 -15 -77 -4 -140 -11 -140 -15 0 -4 -62 -11
-137 -15 -76 -4 -143 -11 -148 -15 -6 -5 -60 -12 -120 -16 -61 -4 -114 -10
-120 -14 -5 -4 -55 -11 -110 -15 -55 -4 -109 -11 -122 -16 -12 -4 -50 -10 -85
-14 -35 -3 -92 -10 -128 -16 -64 -10 -199 -29 -355 -48 -44 -6 -89 -13 -100
-17 -11 -3 -49 -11 -85 -19 -89 -18 -149 -35 -186 -51 -23 -10 -59 -12 -147
-7 -105 5 -117 4 -117 -10 0 -10 -4 -17 -10 -17 -6 0 -10 -27 -10 -60 0 -53
-2 -60 -19 -60 -11 0 -23 5 -26 10 -3 6 -17 10 -31 10 -20 0 -24 -5 -24 -29 0
-32 22 -61 46 -61 8 0 14 -4 14 -9 0 -5 13 -12 29 -16 22 -5 31 -14 36 -36 4
-16 11 -29 16 -29 5 0 9 -11 9 -25 0 -15 7 -28 18 -32 35 -14 53 -39 46 -67
-6 -26 -5 -26 46 -26 l51 0 -7 -96 c-7 -104 -20 -129 -66 -136 -18 -2 -23 -9
-23 -33 0 -25 4 -30 27 -33 16 -2 28 -6 29 -10 5 -62 2 -113 -10 -140 -9 -22
-11 -36 -4 -40 6 -4 13 -23 17 -44 4 -20 13 -39 21 -42 8 -3 15 -17 15 -31 0
-21 4 -26 21 -23 12 2 27 12 33 23 16 29 27 35 64 35 17 0 32 4 32 9 0 5 54
12 120 16 66 4 120 11 120 15 0 4 61 11 135 15 74 4 137 11 140 15 2 4 68 11
145 15 77 4 140 10 140 15 0 4 54 11 120 15 66 4 120 10 120 15 0 4 47 11 105
15 58 4 105 10 105 15 0 4 48 10 106 14 59 4 114 11 123 16 9 5 63 14 121 19
111 11 188 22 335 46 50 8 124 19 165 25 170 24 216 31 230 37 8 4 50 13 93
20 42 7 112 19 155 26 117 20 142 33 143 70 2 67 -3 102 -18 112 -13 10 -15
32 -11 135 3 83 8 125 16 128 7 2 12 8 12 14 0 5 9 21 20 35 11 14 20 41 20
60 0 20 4 32 10 28 6 -4 11 11 12 37 1 24 2 67 3 96 2 28 -1 52 -6 52 -5 0 -9
7 -9 15 0 8 3 15 8 15 12 0 14 122 1 130 -8 6 -8 13 0 28 8 16 8 24 -4 36 -10
10 -11 16 -3 18 7 3 5 12 -8 26 -15 18 -29 22 -81 22 -35 0 -63 -4 -63 -9z"/>
</g>
</svg>
