<?xml version="1.0" standalone="no"?>
<!DOCTYPE svg PUBLIC "-//W3C//DTD SVG 20010904//EN"
 "http://www.w3.org/TR/2001/REC-SVG-20010904/DTD/svg10.dtd">
<svg version="1.0" xmlns="http://www.w3.org/2000/svg"
 width="835.000000pt" height="299.000000pt" viewBox="0 0 835.000000 299.000000"
 preserveAspectRatio="xMidYMid meet">
<metadata>
Created by potrace 1.16, written by Peter Selinger 2001-2019
</metadata>
<g transform="translate(0.000000,299.000000) scale(0.100000,-0.100000)"
fill="#ffffff" stroke="none">
<path d="M626 2655 c-13 -17 -19 -43 -20 -93 0 -43 -6 -75 -15 -86 -11 -13
-14 -48 -13 -143 1 -96 -3 -131 -14 -148 -25 -38 -29 -125 -9 -184 13 -40 14
-55 5 -66 -12 -15 -6 -75 13 -113 8 -17 8 -28 0 -42 -10 -14 -8 -29 8 -72 11
-29 23 -73 26 -97 4 -35 14 -52 46 -83 22 -21 43 -38 47 -38 9 0 40 -97 47
-147 3 -21 4 -81 3 -134 -1 -61 2 -99 9 -103 14 -9 15 -56 1 -56 -5 0 -10 -9
-10 -21 0 -11 -7 -43 -16 -70 -9 -27 -14 -52 -11 -55 13 -14 87 93 87 126 0
13 26 41 32 35 2 -3 16 14 31 38 33 50 100 127 112 127 4 0 1 -8 -7 -17 -9
-10 -19 -28 -23 -41 -3 -12 -18 -35 -32 -50 -14 -15 -41 -51 -60 -80 -19 -28
-38 -52 -42 -52 -15 0 -72 -103 -66 -118 5 -13 8 -12 25 3 39 35 30 7 -16 -55
-45 -59 -47 -64 -36 -94 7 -18 12 -61 12 -96 0 -50 5 -70 23 -94 27 -37 45
-74 49 -101 3 -20 12 -20 2028 -22 1330 -2 2028 1 2034 7 6 6 17 10 27 10 9 0
27 10 40 23 13 13 39 32 57 42 17 11 32 23 32 27 0 16 45 48 68 48 14 0 50 15
81 32 55 32 69 36 163 41 27 1 48 4 48 7 0 11 56 10 104 -1 28 -7 57 -13 65
-14 9 0 42 -9 73 -19 34 -10 81 -16 115 -15 32 2 67 -2 78 -8 19 -10 62 -19
135 -29 19 -3 44 -11 55 -18 18 -12 67 -20 178 -31 27 -3 62 -12 142 -36 6 -2
38 0 72 4 42 5 76 4 104 -4 31 -10 45 -10 59 -1 15 9 24 7 45 -10 21 -16 44
-22 94 -24 100 -5 181 -15 187 -25 3 -5 144 -9 314 -9 367 0 349 -7 297 110
-17 39 -18 50 -8 85 7 22 11 58 10 80 -5 92 9 185 28 192 11 5 13 19 7 70 -6
59 -5 67 18 91 46 52 67 127 67 239 -1 76 -4 105 -15 114 -13 10 -12 14 2 30
12 14 15 28 9 61 -4 24 -8 84 -10 133 -6 146 -28 302 -46 320 -15 15 -10 33
11 40 23 7 27 40 5 49 -22 8 -18 53 5 76 17 17 19 28 13 58 -9 47 -7 55 21 97
21 31 23 40 14 77 -9 39 -12 67 -17 176 -1 25 -6 35 -21 39 -11 3 -20 11 -20
18 0 7 -7 18 -16 25 -8 7 -14 23 -13 34 0 12 1 29 0 39 -1 16 -172 17 -3454
17 l-3452 0 -19 -25z"/>
</g>
</svg>
